<svg width="11" height="11" viewBox="0 0 11 11" fill="none" xmlns="http://www.w3.org/2000/svg">
<g clip-path="url(#clip0_39_38)">
<path d="M10.1274 1.5593C9.55795 0.941704 8.77662 0.601562 7.92715 0.601562C7.29218 0.601562 6.71068 0.802307 6.19875 1.19817C5.94043 1.39799 5.70637 1.64246 5.5 1.9278C5.29372 1.64255 5.05957 1.39799 4.80117 1.19817C4.28932 0.802307 3.70782 0.601562 3.07285 0.601562C2.22338 0.601562 1.44197 0.941704 0.872551 1.5593C0.309929 2.16967 0 3.00353 0 3.90739C0 4.83768 0.346687 5.68925 1.091 6.58739C1.75685 7.39079 2.71383 8.20636 3.82204 9.15075C4.20045 9.47327 4.62938 9.83884 5.07476 10.2282C5.19242 10.3313 5.3434 10.388 5.5 10.388C5.65652 10.388 5.80758 10.3313 5.92507 10.2284C6.37045 9.83892 6.79964 9.47318 7.17822 9.1505C8.28625 8.20628 9.24323 7.39079 9.90908 6.58731C10.6534 5.68925 11 4.83768 11 3.9073C11 3.00353 10.6901 2.16967 10.1274 1.5593Z" fill="#111827"/>
</g>
<defs>
<clipPath id="clip0_39_38">
<rect width="11" height="11" fill="white"/>
</clipPath>
</defs>
</svg>
